<?xml version="1.0" standalone="no"?>
<!DOCTYPE svg PUBLIC "-//W3C//DTD SVG 20010904//EN"
 "http://www.w3.org/TR/2001/REC-SVG-20010904/DTD/svg10.dtd">
<svg version="1.0" xmlns="http://www.w3.org/2000/svg"
 width="700.000000pt" height="700.000000pt" viewBox="0 0 700.000000 700.000000"
 preserveAspectRatio="xMidYMid meet">
<metadata>
Created by potrace 1.11, written by Peter Selinger 2001-2013
</metadata>
<g transform="translate(0.000000,700.000000) scale(0.100000,-0.100000)"
fill="#000000" stroke="none">
<path d="M439 6983 c-1 -23 -1 -6966 0 -6976 1 -4 99 -6 218 -5 l218 3 0 235
c1 250 4 272 53 337 44 60 98 76 252 79 74 1 155 -2 179 -7 63 -14 116 -55
146 -115 25 -50 25 -54 25 -292 l0 -242 1970 0 1970 0 0 243 c0 267 6 294 66
351 53 50 87 58 244 61 175 2 224 -9 280 -65 59 -59 65 -94 65 -360 l0 -230
219 2 219 3 1 3498 1 3497 -220 -2 -220 -3 0 -240 c-1 -266 -5 -284 -71 -350
-52 -52 -98 -62 -269 -60 -167 3 -198 11 -252 67 -59 61 -63 82 -63 348 l0
240 -1970 0 -1970 0 0 -240 c0 -266 -4 -287 -63 -348 -53 -56 -85 -64 -248
-66 -176 -3 -221 8 -278 64 -60 60 -66 92 -66 359 l0 231 -217 0 c-201 0 -218
-1 -219 -17z m963 -1097 c50 -24 104 -86 117 -133 6 -22 11 -144 11 -294 0
-253 0 -255 -25 -306 -25 -50 -72 -91 -126 -112 -15 -5 -93 -10 -173 -10 -166
0 -216 12 -268 66 -57 59 -64 100 -63 384 1 242 2 257 24 301 24 51 72 92 128
112 23 8 89 12 187 11 124 -1 158 -4 188 -19z m4588 2 c45 -19 92 -66 116
-115 16 -34 18 -66 18 -308 0 -249 -1 -273 -19 -305 -29 -51 -46 -70 -90 -99
-38 -24 -47 -26 -201 -28 -129 -3 -169 0 -199 13 -61 25 -93 55 -120 108 -25
49 -25 52 -25 315 0 237 2 270 19 307 24 53 93 111 145 122 71 14 316 8 356
-10z m-4595 -1312 c53 -22 92 -61 116 -114 19 -41 20 -62 17 -320 l-3 -277
-28 -42 c-29 -45 -83 -85 -131 -97 -45 -11 -291 -8 -338 4 -60 16 -130 90
-144 150 -5 25 -9 158 -9 295 1 273 5 292 63 351 60 60 101 69 286 68 98 -1
141 -5 171 -18z m4602 -4 c49 -25 86 -63 109 -110 16 -32 18 -69 19 -292 1
-282 -6 -324 -61 -381 -58 -62 -86 -68 -280 -70 -115 -1 -138 2 -183 21 -59
26 -92 61 -115 122 -15 37 -17 82 -14 315 l3 271 30 43 c63 89 112 105 312
102 118 -1 147 -5 180 -21z m-4597 -1309 c42 -18 96 -76 114 -121 13 -35 16
-85 16 -303 0 -284 -2 -296 -59 -362 -52 -58 -98 -70 -275 -70 -152 0 -154 0
-207 30 -40 22 -60 43 -83 83 l-30 54 -1 246 c0 135 3 266 8 292 11 54 60 119
111 145 57 30 340 33 406 6z m4573 6 c50 -13 106 -64 131 -119 18 -41 20 -67
21 -295 1 -137 -3 -263 -8 -280 -21 -73 -54 -112 -121 -147 -35 -18 -60 -20
-196 -21 -142 -1 -160 1 -203 22 -57 27 -102 78 -116 128 -6 22 -11 145 -11
290 0 212 3 259 17 295 17 46 72 104 113 121 57 23 295 27 373 6z m-4568
-1321 c51 -28 84 -63 105 -109 18 -40 20 -66 20 -309 0 -290 -4 -312 -64 -372
-56 -55 -87 -62 -261 -63 -147 0 -164 2 -207 23 -55 27 -98 80 -113 138 -6 25
-10 143 -9 291 1 210 3 254 18 288 23 55 52 84 111 111 47 22 60 23 210 21
129 -2 166 -5 190 -19z m4591 -2 c27 -13 62 -37 77 -55 47 -57 54 -102 52
-377 -1 -248 -1 -252 -26 -300 -27 -53 -88 -101 -144 -114 -19 -4 -98 -7 -177
-6 -155 2 -191 12 -244 64 -60 60 -64 82 -64 373 0 264 0 265 25 316 26 52 79
97 131 112 16 5 95 9 175 9 132 1 150 -1 195 -22z"/>
</g>
</svg>
